<svg fill="none" height="350" viewBox="0 0 520 350" width="520" xmlns="http://www.w3.org/2000/svg"><clipPath id="a"><path d="M0 0h520v350H0z"/></clipPath><mask id="b" height="55" maskUnits="userSpaceOnUse" width="90" x="199" y="35"><path d="M199 35.1l45 23.143L289 35.1v48a6 6 0 0 1-6 6h-78a6 6 0 0 1-6-6z" fill="#59bcf9"/></mask><g clip-path="url(#a)"><path clip-rule="evenodd" d="M95.557 341.263c-9.235.931-36.502 2.93-39.989-5.456-10.014-24.088 11.995-97.608 19.203-104.515a4.227 4.227 0 0 1 1.375-.905 17.648 17.648 0 0 1 2.051-2.313c17.672-16.779 56.13-18.026 73.803-18.026 18.242 0 45.39 2.525 56.689 7.863 10.632 5.023 20.282 21.301 20.986 25.723a94.174 94.174 0 0 1 6.569 17.874c6.93 26.996 9.126 57.326 6.949 67.684-2.813 13.385-27.291 12.757-36.321 12.057-6.565.687-16.343.259-27.44-.227-9.493-.416-19.951-.874-30.185-.712-9.669.154-18.539.52-26.293.84-12.449.514-22.019.909-27.397.113z" fill="#fc5854" fill-rule="evenodd"/><path d="M184.333 219.918s-4.808 8.388-7.54 12.349c-2.732 3.96-11.11 10.975-11.11 10.975m-54.624-23.324s4.807 8.388 7.539 12.349c2.733 3.96 11.11 10.975 11.11 10.975" stroke="#ce3d3a" stroke-linecap="round" stroke-linejoin="round" stroke-width="2"/><path clip-rule="evenodd" d="M119.089 196.495c8.306-7.849 48.605-5.945 57.243 0 8.638 5.946 11.148 15.381 8.088 20.97-3.059 5.588-20.34 23.373-35.448 25.623-15.107 2.25-35.73-20.843-37.913-25.623-2.183-4.781-.276-13.12 8.03-20.97z" fill="#fc5854" fill-rule="evenodd"/><path clip-rule="evenodd" d="M123.62 197.086c5.67-4.168 37.936-3.911 46.813-.244 8.878 3.668 8.128 11.676 4.729 20.623-3.4 8.947-15.91 21.791-27.713 21.791s-23.884-14.803-28.058-21.791-1.441-16.211 4.229-20.379z" fill="#ce3d3a" fill-rule="evenodd"/><path clip-rule="evenodd" d="M117.708 212.807s3.99-.556 5.326-.728c10.437-1.341 18.782.469 24.913.469 6.319 0 14.553-2.122 24.673-1.409 1.111.078 4.386.336 4.386.336-2.972 12.987-14.678 27.855-29.115 27.855-10.59 0-30.183-14.548-30.183-26.523z" fill="#fff" fill-rule="evenodd"/><path clip-rule="evenodd" d="M168.597 184.733c-1.199 6.932-3.697 13.024-7.06 17.591v8.43c8.055.072 11.083.385 11.083.385s-1.229 18.139-23.354 18.925-26.602-17.948-26.602-17.948 3.273-.465 12.055-.862v-5.632c-4.638-4.54-8.156-11.637-9.753-20.036a3.583 3.583 0 0 1-1.685.433c-3.068 0-5.555-4.141-5.555-9.249 0-5.109 2.487-9.25 5.555-9.25.233 0 .463.024.688.07-.027-7.309.223-13.738 2.61-18.569 2.793-5.652 8.509-9.118 20.125-9.249 2.353.311 4.373.451 6.146.573 6.818.471 9.999.69 14.526 9.498 3.972 7.729 3.875 12.43 3.11 17.809.305-.087.619-.132.939-.132 3.068 0 5.555 4.141 5.555 9.25 0 5.108-2.487 9.249-5.555 9.249-1.033 0-2-.469-2.828-1.286z" fill="#f1bd9a" fill-rule="evenodd"/><path d="M134.706 203.646s6.769 6.528 12.819 6.476c5.976-.051 12.589-6.476 12.589-6.476" stroke="#e0a57d" stroke-linecap="round" stroke-linejoin="round" stroke-width="2"/><path clip-rule="evenodd" d="M146.81 126.052c18.46.654 20.963 5.725 22.415 10.458.704 2.294 6.593-1.961 7.912 5.882.651 3.874-.28 15.587-3.956 22.876-.575 1.14-1.978 13.072-1.978 13.072h-2.637s.234-3.537-.659-8.497c-.894-4.959-3.297-6.536-2.637-9.804.659-3.268 1.318-6.536-1.319-8.497-.742-.551-7.921-2.394-16.708-2.614-9.188-.23-20.004 1.204-20.871 2.614-2.496 4.061 0 3.922 0 8.497 0 2.44-1.318 5.878-1.318 10.458s.208 9.15.208 9.15h-2.637s-.142-5.182-.868-6.536c-1.733-3.234-2.637-3.921-3.955-6.536-1.319-2.614-3.768-16.76 2.637-30.065 2.64-5.486 7.911-11.112 26.371-10.458z" fill="#2e2f2f" fill-rule="evenodd"/><path d="M167.319 166.83a2 2 0 0 1 2-2h4.105a5 5 0 0 1 5 5v12.189a5 5 0 0 1-5 5h-4.105a2 2 0 0 1-2-2z" fill="#59bcf9"/><path d="M167.319 165.941a1.11 1.11 0 1 1 2.221 0v19.967a1.11 1.11 0 1 1-2.221 0z" fill="#3eabee"/><path d="M126.231 166.83a2 2 0 0 0-2-2h-4.105a5 5 0 0 0-5 5v12.189a5 5 0 0 0 5 5h4.105a2 2 0 0 0 2-2z" fill="#59bcf9"/><path d="M124.01 165.941a1.11 1.11 0 1 1 2.221 0v19.967a1.111 1.111 0 0 1-2.221 0z" fill="#3eabee"/><path d="M122.899 164.83c0-15.116 0-33.422 24.57-33.422 23.181 0 23.181 17.89 23.181 34.531" stroke="#59bcf9" stroke-width="2"/><path d="M122.899 164.83c0-3.201 0-6.546.233-9.83m47.518 10.939c0-6.217 0-12.608-1.209-18.175" stroke="#59bcf9" stroke-width="2"/><path d="M153.993 197.113a1 1 0 0 0 0 2zm13.436-13.423c0 3.13-1.676 6.496-4.272 9.107-2.595 2.609-5.964 4.316-9.164 4.316v2c3.879 0 7.729-2.037 10.582-4.906 2.852-2.867 4.854-6.713 4.854-10.517z" fill="#3eabee"/><ellipse cx="152.882" cy="198.113" fill="#3eabee" rx="3.331" ry="2.219"/><g clip-rule="evenodd" fill-rule="evenodd"><path d="M69.96 253.778c-.26-5.695 4.288-10.454 9.99-10.454h138.979c5.701 0 10.249 4.759 9.99 10.454l-3.633 79.849a10 10 0 0 1-9.99 9.545H83.582a10 10 0 0 1-9.99-9.545z" fill="#d9dce2"/><path d="M147.777 282.498c.822.978 2.917.573 4.679-.904 1.763-1.478 2.526-3.469 1.704-4.447-.822-.979-2.917-.574-4.679.904-1.763 1.477-2.526 3.468-1.704 4.447zm1.803 3.336c2.94 0 5.634 1.054 7.724 2.803a8.02 8.02 0 0 0 4.03 11.821c-1.189 5.391-6 9.425-11.754 9.425-6.647 0-12.036-5.383-12.036-12.024s5.389-12.025 12.036-12.025z" fill="#fff"/><path d="M64.487 343.504a2.496 2.496 0 0 1 2.496-2.496h164.912a2.496 2.496 0 1 1 0 4.992H66.983a2.496 2.496 0 0 1-2.496-2.496z" fill="#bfc2c8"/><path d="M377.636 127.999c-12.195-3.704-25.606-2.386-36.654 5.002-9.143 6.113-17.254 14.026-23.924 23.042-2.056 2.777-17.662 25.947-14.926 28.804 16.517 17.255 38.837 27.58 61.777 31.006 21.185 3.65 43.124-.341 64.096-3.343-2.113-25.983-11.749-53.04-29.561-71.69a48.18 48.18 0 0 0-20.808-12.821" fill="#2f302f"/><path d="M324.872 285.863l7.394 48.638 65.537.301 11.218-49.501c10.097-9.562 10.658-24.752 10.658-31.5 0-6.752-2.91-27.566-2.91-27.566S387.15 212.542 368 212.059c-23.755-.6-50.679 14.176-50.679 14.176l-4.231 27.004c-3.364 19.686 11.782 32.624 11.782 32.624z" fill="#5bb347"/><path d="M416.769 226.236c10.564 5.779 19.726 39.434 20.43 51.579.705 12.142-.27 65.022-16.837 66.555-16.563 1.529-88.097-9.87-88.097-9.87l1.582-17.178 69.381-6.471 5.416-58.347z" fill="#5bb347"/><path d="M317.319 226.236c-16.133 8.602-19.11 56.026-18.325 72.239.78 16.214-4.418 42.833 9.105 43.656 13.524.827 76.712-5.534 76.712-5.534l13.034-24.544-60.769-5.829z" fill="#5bb347"/><path d="M376.322 256.43a.988.988 0 0 1-.22-.024c-10.914-2.435-21.095-8.916-27.929-17.779a1.018 1.018 0 0 1 .177-1.422 1.006 1.006 0 0 1 1.418.184c6.557 8.495 16.314 14.701 26.774 17.037.548.124.891.662.768 1.211a1.013 1.013 0 0 1-.988.793m32.322 28.646a1.015 1.015 0 0 1-.857-1.552c6.907-11.058 8.018-25.381 2.903-37.376a1.014 1.014 0 0 1 .033-.867c.811-1.572 1.568-3.262 2.326-4.951.774-1.727 1.551-3.45 2.379-5.056a1.012 1.012 0 0 1 1.365-.435c.494.258.687.87.43 1.365-.811 1.576-1.568 3.266-2.329 4.955-.707 1.573-1.415 3.145-2.159 4.631 5.159 12.506 3.934 27.332-3.233 38.811a1.01 1.01 0 0 1-.858.475m-84.16 0a1.01 1.01 0 0 1-.858-.475c-7.167-11.479-8.392-26.305-3.233-38.811-.744-1.486-1.452-3.058-2.159-4.631-.761-1.689-1.518-3.379-2.329-4.955a1.015 1.015 0 0 1 .43-1.365 1.01 1.01 0 0 1 1.365.435c.828 1.606 1.602 3.329 2.379 5.056.758 1.689 1.515 3.379 2.326 4.951.144.271.15.589.033.867-5.115 11.995-4.004 26.318 2.903 37.376a1.015 1.015 0 0 1-.857 1.552" fill="#469434"/><path d="M355.679 191.925v24.746c0 12.139 23.988 12.69 23.988.495 0-6.954-1.004-25.241-1.004-25.241z" fill="#946647"/><path d="M360.716 133.257c-21.285 2.8-24.692 27.462-19.573 46.951 3.817 14.541 12.502 29.226 26.16 28.874 13.657-.354 21.889-19.074 24.335-30.56 3.93-18.476 3.203-49.752-30.922-45.265" fill="#946647"/><path d="M343.678 174.815s-.824-8.17-7.394-5.443c-6.573 2.723 1.445 21.135 8.763 19.02 7.317-2.114-1.369-13.577-1.369-13.577m43.724-.411s.237-8.207 6.987-5.962c6.751 2.245.07 21.186-7.381 19.603-7.451-1.582.394-13.641.394-13.641" fill="#fe8967"/><path d="M389.624 139.36c-1.685-.75-3.493-1.047-5.339-1.124-.48-1.359-1.277-2.439-2.522-3.115-7.428-4.042-25.059-3.42-32.79 0-7.735 3.423-16.714 17.689-18.746 25.913-2.159 8.749.003 17.92 2.162 26.669.621 2.516 1.448 5.313 3.721 6.555 8.281 4.53 22.105-9.138 27.097-14.304 7.711-7.976 13.577-17.769 16.787-28.409-2.742 9.094-.143 43.221 14.862 42.609 1.555-.064 2.503-1.696 3.15-3.115 2.403-5.273 4.848-10.723 5.042-16.518.19-5.795-8.138-32.809-13.424-35.161" fill="#2f302f"/><path d="M367.396 210.089c-3.223 0-6.443-.823-9.249-2.479a1.016 1.016 0 0 1-.361-1.389 1.01 1.01 0 0 1 1.389-.358c5.218 3.088 12.379 2.851 17.397-.572a1.013 1.013 0 0 1 1.138 1.676c-3.04 2.075-6.68 3.122-10.314 3.122" fill="#7a4e30"/><path d="M375.282 309.889s6.597 13.898 6.86 13.105c.264-.796 15.703-10.941 15.703-10.941s6.904-5.44 4.117-8.14c-2.786-2.7 1.852-7.685.661-9.539-1.188-1.853-1.888-5.852-1.888-5.852l-2.89 7.706-8.792 1.06s-.04-7.725-1.889-8.766c-1.852-1.037-4.231 13.802-4.231 13.802z" fill="#af8162"/></g><path d="M384.397 327.642l-56.682 12.63" stroke="#e2c1ac" stroke-linecap="square" stroke-width=".8"/><path clip-rule="evenodd" d="M290.481 252.464c-.262-5.697 4.286-10.459 9.989-10.459h139.06c5.703 0 10.251 4.762 9.989 10.459l-3.687 80.271a10 10 0 0 1-9.99 9.541H304.158a10 10 0 0 1-9.99-9.541z" fill="#d9dce2" fill-rule="evenodd"/><path clip-rule="evenodd" d="M285 343.493a2.507 2.507 0 0 1 2.507-2.507h164.986a2.507 2.507 0 0 1 0 5.014H287.507a2.506 2.506 0 0 1-2.507-2.507z" fill="#bfc2c8" fill-rule="evenodd"/><path clip-rule="evenodd" d="M368.355 281.461c.813.972 2.887.57 4.632-.898 1.744-1.467 2.499-3.445 1.686-4.417s-2.887-.57-4.631.898c-1.745 1.468-2.5 3.446-1.687 4.417zm8.199 10.36a7.965 7.965 0 0 0 5.219 7.482c-1.177 5.356-5.939 9.363-11.633 9.363-6.58 0-11.913-5.348-11.913-11.945s5.333-11.945 11.913-11.945c2.91 0 5.576 1.046 7.645 2.784a7.94 7.94 0 0 0-1.231 4.261z" fill="#fff" fill-rule="evenodd"/><path clip-rule="evenodd" d="M0 348a2 2 0 0 0 2 2h516a2 2 0 1 0 0-4H2a2 2 0 0 0-2 2z" fill="#31416f" fill-rule="evenodd"/><rect fill="#fec424" height="60" rx="10" width="80" x="377" y="37"/><path d="M432 96.5h-10v10z" fill="#fec424"/><circle cx="401" cy="67" fill="#fff" r="4"/><circle cx="417" cy="67" fill="#fff" r="4"/><circle cx="433" cy="67" fill="#fff" r="4"/><rect fill="#59bcf9" height="60" rx="10" transform="matrix(-1 0 0 1 520 67)" width="80"/><path d="M471 126.5h-10v10z" fill="#59bcf9"/><circle fill="#fff" r="4" transform="matrix(-1 0 0 1 496 97)"/><circle fill="#fff" r="4" transform="matrix(-1 0 0 1 480 97)"/><circle fill="#fff" r="4" transform="matrix(-1 0 0 1 464 97)"/><rect fill="#5bb347" height="70" rx="10" width="90" x="1" y="59"/><rect fill="#fff" height="2" rx="1" width="50" x="21" y="102.691"/><rect fill="#fff" height="2" rx="1" width="50" x="21" y="108.691"/><path d="M21.196 81.78c.566-1.343 1.303-2.328 2.21-2.955.906-.628 2.06-.941 3.463-.941.697 0 1.355.1 1.974.3a4.35 4.35 0 0 1 1.621.902c.462.41.828.928 1.098 1.556.27.619.405 1.355.405 2.21 0 .522-.087 1.053-.261 1.594-.166.54-.445 1.124-.837 1.751-.383.62-.893 1.303-1.53 2.053a49.801 49.801 0 0 1-2.313 2.549l-3.124 3.215h8.458v2.223H21v-2.275l4.497-4.706A43.821 43.821 0 0 0 27 87.596c.48-.558.902-1.107 1.268-1.647s.654-1.067.863-1.582c.218-.514.327-1.006.327-1.477 0-.322-.048-.649-.144-.98a2.538 2.538 0 0 0-.47-.915c-.219-.279-.506-.506-.864-.68s-.797-.261-1.32-.261c-.54 0-.998.082-1.372.248-.375.157-.689.357-.942.601s-.457.51-.614.798a7.69 7.69 0 0 0-.392.823zm21.608 14.457v-3.922H34.66V89.65l7.935-11.582h2.64v12h2.602v2.248h-2.602v3.922zm-5.87-6.17h5.87v-8.968l-.837 1.334c-.113.174-.226.353-.34.536l-.326.523c-.105.165-.2.313-.288.444-.078.13-.144.235-.196.314zm21.295-12.758l-6.34 19.163h-2.105l6.393-19.163zm3.307 18.928l6.85-15.726h-8.419v-2.274H71v2.078l-6.654 15.922z" fill="#fff"/><path d="M50 128.5h10v10z" fill="#5bb347"/><path d="M199 35.1l42.54-33.181a4 4 0 0 1 4.92 0L289 35.1v48a6 6 0 0 1-6 6h-78a6 6 0 0 1-6-6z" fill="#3eabee"/><path d="M203.5 5.6a2 2 0 0 1 2-2h77a2 2 0 0 1 2 2v50a2 2 0 0 1-2 2h-77a2 2 0 0 1-2-2z" fill="#ecf3fe"/><path d="M212.5 14.85c0-.746.604-1.35 1.35-1.35h33.3a1.35 1.35 0 1 1 0 2.7h-33.3a1.35 1.35 0 0 1-1.35-1.35zm0 6.3c0-.746.604-1.35 1.35-1.35h60.3a1.35 1.35 0 1 1 0 2.7h-60.3a1.35 1.35 0 0 1-1.35-1.35zm0 6.3c0-.746.604-1.35 1.35-1.35h60.3a1.35 1.35 0 1 1 0 2.7h-60.3a1.35 1.35 0 0 1-1.35-1.35zm0 6.3c0-.746.604-1.35 1.35-1.35h60.3a1.35 1.35 0 1 1 0 2.7h-60.3a1.35 1.35 0 0 1-1.35-1.35z" fill="#d0d5d8"/><g mask="url(#b)"><path d="M199 35.1l45 23.143L289 35.1v48a6 6 0 0 1-6 6h-78a6 6 0 0 1-6-6z" fill="#59bcf9"/><path d="M241.544 55.91a4 4 0 0 1 4.912 0L289 89h-90z" fill="#3eabee"/></g><path d="M241.537 55.924a4.001 4.001 0 0 1 4.926 0L276 79h-64z" fill="#3eabee"/></g></svg>